<svg width="85" height="17" fill="none" xmlns="http://www.w3.org/2000/svg"><g clip-path="url('#clip0_2_305')"><path fill-rule="evenodd" clip-rule="evenodd" d="M5 7.445c-.962 0-1.74-.745-1.74-1.664 0-.918.778-1.662 1.74-1.662.96 0 1.738.744 1.738 1.662 0 .92-.778 1.664-1.738 1.664ZM5 1C2.239 1 0 3.14 0 5.78c0 1.928 2.659 7.691 4.1 10.67.353.733 1.444.733 1.8 0C7.34 13.47 10 7.708 10 5.78 10 3.14 7.761 1 5 1Z" fill="#fff"/></g><path d="M15.516 5.812c0-.816.184-1.548.552-2.196a4.012 4.012 0 0 1 1.5-1.536 4.185 4.185 0 0 1 2.124-.552c.912 0 1.708.22 2.388.66.68.44 1.176 1.064 1.488 1.872H22.26a2.614 2.614 0 0 0-1.008-1.164c-.432-.272-.952-.408-1.56-.408a3.05 3.05 0 0 0-1.572.408c-.464.272-.828.66-1.092 1.164-.264.496-.396 1.08-.396 1.752 0 .664.132 1.248.396 1.752.264.496.628.88 1.092 1.152a3.05 3.05 0 0 0 1.572.408c.608 0 1.128-.132 1.56-.396.44-.272.776-.66 1.008-1.164h1.308c-.312.8-.808 1.42-1.488 1.86-.68.432-1.476.648-2.388.648-.776 0-1.484-.18-2.124-.54a4.035 4.035 0 0 1-1.5-1.524c-.368-.648-.552-1.38-.552-2.196Zm12.545 4.296a3.4 3.4 0 0 1-1.68-.42A3.053 3.053 0 0 1 25.206 8.5c-.28-.52-.42-1.12-.42-1.8 0-.672.143-1.264.431-1.776.297-.52.697-.916 1.2-1.188a3.424 3.424 0 0 1 1.692-.42c.624 0 1.188.14 1.692.42.505.272.9.664 1.189 1.176.296.512.444 1.108.444 1.788 0 .68-.152 1.28-.457 1.8a3.09 3.09 0 0 1-1.212 1.188c-.512.28-1.08.42-1.704.42Zm0-.96c.392 0 .76-.092 1.105-.276.343-.184.62-.46.828-.828.215-.368.323-.816.323-1.344 0-.528-.104-.976-.311-1.344a2.003 2.003 0 0 0-.817-.816 2.237 2.237 0 0 0-1.091-.276c-.4 0-.768.092-1.104.276a1.951 1.951 0 0 0-.793.816c-.2.368-.3.816-.3 1.344 0 .536.096.988.288 1.356.2.368.465.644.793.828.328.176.688.264 1.08.264Zm7.136.96c-.504 0-.956-.084-1.356-.252a2.356 2.356 0 0 1-.948-.72 1.946 1.946 0 0 1-.384-1.068h1.128c.032.328.184.596.456.804.28.208.644.312 1.092.312.416 0 .744-.092.984-.276.24-.184.36-.416.36-.696 0-.288-.128-.5-.384-.636-.256-.144-.652-.284-1.188-.42a9.777 9.777 0 0 1-1.2-.384 2.279 2.279 0 0 1-.792-.588c-.216-.264-.324-.608-.324-1.032 0-.336.1-.644.3-.924.2-.28.484-.5.852-.66a3.003 3.003 0 0 1 1.26-.252c.728 0 1.316.184 1.764.552.448.368.688.872.72 1.512h-1.092a1.12 1.12 0 0 0-.42-.828c-.248-.208-.584-.312-1.008-.312-.392 0-.704.084-.936.252a.779.779 0 0 0-.348.66c0 .216.068.396.204.54.144.136.32.248.528.336.216.08.512.172.888.276.472.128.856.256 1.152.384.296.12.548.304.756.552.216.248.328.572.336.972 0 .36-.1.684-.3.972-.2.288-.484.516-.852.684-.36.16-.776.24-1.248.24Zm5.274-5.784V8.2c0 .32.068.548.204.684.136.128.372.192.708.192h.804V10h-.984c-.608 0-1.064-.14-1.368-.42-.304-.28-.456-.74-.456-1.38V4.324h-.852v-.9h.852V1.768h1.092v1.656h1.716v.9H40.47Zm2.63 2.364c0-.672.137-1.26.409-1.764a2.964 2.964 0 0 1 1.116-1.188 3.11 3.11 0 0 1 1.596-.42c.576 0 1.076.124 1.5.372.424.248.74.56.948.936v-1.2h1.104V10H48.67V8.776c-.216.384-.54.704-.972.96-.424.248-.92.372-1.488.372a2.98 2.98 0 0 1-1.584-.432 3.03 3.03 0 0 1-1.116-1.212c-.272-.52-.408-1.112-.408-1.776Zm5.569.012c0-.496-.1-.928-.3-1.296a2.065 2.065 0 0 0-.816-.84 2.14 2.14 0 0 0-1.116-.3c-.408 0-.78.096-1.116.288a2.09 2.09 0 0 0-.804.84c-.2.368-.3.8-.3 1.296 0 .504.1.944.3 1.32.2.368.468.652.804.852a2.21 2.21 0 0 0 1.116.288c.408 0 .78-.096 1.116-.288.344-.2.616-.484.816-.852.2-.376.3-.812.3-1.308ZM59.222 10 57.23 6.58h-1.32V10H54.82V1.636h2.7c.632 0 1.163.108 1.596.324.44.216.767.508.983.876.217.368.325.788.325 1.26 0 .576-.169 1.084-.505 1.524-.328.44-.824.732-1.487.876L60.53 10h-1.309ZM55.91 5.704h1.609c.592 0 1.035-.144 1.331-.432.297-.296.444-.688.444-1.176 0-.496-.147-.88-.444-1.152-.288-.272-.732-.408-1.331-.408H55.91v3.168Zm6.773-3.348a.718.718 0 0 1-.528-.216.718.718 0 0 1-.216-.528c0-.208.072-.384.216-.528a.718.718 0 0 1 .528-.216c.2 0 .368.072.504.216.144.144.216.32.216.528a.718.718 0 0 1-.216.528.666.666 0 0 1-.504.216Zm.528 1.068V10H62.12V3.424h1.092ZM64.664 6.7c0-.68.136-1.272.408-1.776A2.938 2.938 0 0 1 66.2 3.736c.488-.28 1.044-.42 1.668-.42.808 0 1.472.196 1.992.588.528.392.876.936 1.044 1.632h-1.176a1.679 1.679 0 0 0-.66-.948c-.32-.232-.72-.348-1.2-.348-.624 0-1.128.216-1.512.648-.384.424-.576 1.028-.576 1.812 0 .792.192 1.404.576 1.836.384.432.888.648 1.512.648.48 0 .88-.112 1.2-.336.32-.224.54-.544.66-.96h1.176a2.921 2.921 0 0 1-1.056 1.62c-.528.4-1.188.6-1.98.6-.624 0-1.18-.14-1.668-.42A2.938 2.938 0 0 1 65.072 8.5c-.272-.512-.408-1.112-.408-1.8Zm7.29-.012c0-.672.136-1.26.408-1.764a2.964 2.964 0 0 1 1.116-1.188 3.11 3.11 0 0 1 1.596-.42c.576 0 1.076.124 1.5.372.424.248.74.56.948.936v-1.2h1.103V10h-1.103V8.776c-.217.384-.54.704-.973.96-.424.248-.92.372-1.488.372a2.98 2.98 0 0 1-1.584-.432 3.03 3.03 0 0 1-1.115-1.212c-.272-.52-.408-1.112-.408-1.776Zm5.568.012c0-.496-.1-.928-.3-1.296a2.065 2.065 0 0 0-.816-.84 2.14 2.14 0 0 0-1.117-.3c-.407 0-.78.096-1.115.288a2.09 2.09 0 0 0-.805.84c-.2.368-.3.8-.3 1.296 0 .504.1.944.3 1.32.2.368.469.652.805.852a2.21 2.21 0 0 0 1.115.288c.409 0 .78-.096 1.117-.288.343-.2.615-.484.816-.852.2-.376.3-.812.3-1.308Z" fill="#fff"/><defs><clipPath id="clip0_2_305"><path fill="#fff" transform="translate(0 1)" d="M0 0h10v16H0z"/></clipPath></defs></svg>