<svg width="51" height="16" fill="none" xmlns="http://www.w3.org/2000/svg"><g clip-path="url('#clip0_2_358')"><path fill-rule="evenodd" clip-rule="evenodd" d="M5 6.445c-.962 0-1.74-.745-1.74-1.664 0-.918.778-1.662 1.74-1.662.96 0 1.738.744 1.738 1.662 0 .92-.778 1.664-1.738 1.664ZM5 0C2.239 0 0 2.14 0 4.78c0 1.928 2.659 7.691 4.1 10.67.353.733 1.444.733 1.8 0C7.34 12.47 10 6.708 10 4.78 10 2.14 7.761 0 5 0Z" fill="#fff"/></g><path d="M21.875 9h-1.001l-4.026-6.105V9h-1.001V1.322h1.001l4.026 6.094V1.322h1.001V9Zm7.206-3.245c0 .19-.01.392-.033.605H24.23c.037.594.239 1.06.605 1.397.374.33.825.495 1.353.495.433 0 .792-.099 1.078-.297a1.62 1.62 0 0 0 .616-.814h1.078a2.618 2.618 0 0 1-.968 1.419c-.484.36-1.085.539-1.804.539a3.077 3.077 0 0 1-1.54-.385c-.447-.257-.799-.62-1.056-1.089-.256-.477-.385-1.027-.385-1.65s.125-1.17.374-1.639c.25-.47.598-.829 1.045-1.078.455-.257.976-.385 1.562-.385.572 0 1.078.125 1.518.374.44.25.778.594 1.012 1.034.242.433.363.924.363 1.474Zm-1.034-.209c0-.381-.084-.708-.253-.979a1.593 1.593 0 0 0-.693-.627 2.066 2.066 0 0 0-.957-.22c-.506 0-.938.161-1.298.484-.352.323-.553.77-.605 1.342h3.806Zm3.357-1.463c.198-.345.491-.63.88-.858.396-.235.854-.352 1.375-.352.535 0 1.019.128 1.452.385.44.257.784.62 1.034 1.089.249.462.374 1.001.374 1.617 0 .609-.125 1.151-.374 1.628a2.753 2.753 0 0 1-2.486 1.507 2.69 2.69 0 0 1-1.364-.341 2.533 2.533 0 0 1-.891-.869v3.971h-1.001V2.972h1v1.111Zm4.092 1.881c0-.455-.092-.85-.275-1.188a1.894 1.894 0 0 0-.748-.77 2.025 2.025 0 0 0-1.023-.264 2 2 0 0 0-1.023.275 1.971 1.971 0 0 0-.748.781c-.184.337-.275.73-.275 1.177 0 .455.091.854.275 1.199.19.337.44.598.748.781.315.176.656.264 1.023.264.374 0 .715-.088 1.023-.264a1.97 1.97 0 0 0 .748-.781c.183-.345.275-.748.275-1.21Zm1.966 0c0-.616.125-1.155.374-1.617.25-.47.59-.832 1.023-1.089a2.85 2.85 0 0 1 1.463-.385c.528 0 .987.114 1.375.341.389.227.679.513.87.858v-1.1h1.011V9h-1.012V7.878a2.387 2.387 0 0 1-.89.88c-.39.227-.844.341-1.365.341-.535 0-1.02-.132-1.452-.396a2.777 2.777 0 0 1-1.023-1.111c-.25-.477-.374-1.02-.374-1.628Zm5.104.011c0-.455-.091-.85-.275-1.188a1.894 1.894 0 0 0-.748-.77 1.962 1.962 0 0 0-1.023-.275c-.374 0-.715.088-1.023.264a1.915 1.915 0 0 0-.737.77c-.183.337-.275.733-.275 1.188 0 .462.092.865.275 1.21.184.337.43.598.737.781.308.176.65.264 1.023.264.374 0 .715-.088 1.023-.264a1.97 1.97 0 0 0 .748-.781c.184-.345.275-.744.275-1.199ZM46.271.86V9H45.27V.86h1Z" fill="#fff"/><defs><clipPath id="clip0_2_358"><path fill="#fff" d="M0 0h10v16H0z"/></clipPath></defs></svg>