<svg width="65" height="16" fill="none" xmlns="http://www.w3.org/2000/svg"><g clip-path="url('#clip0_2_265')"><path fill-rule="evenodd" clip-rule="evenodd" d="M5 6.445c-.962 0-1.74-.745-1.74-1.664 0-.918.778-1.662 1.74-1.662.96 0 1.738.744 1.738 1.662 0 .92-.778 1.664-1.738 1.664ZM5 0C2.239 0 0 2.14 0 4.78c0 1.928 2.659 7.691 4.1 10.67.353.733 1.444.733 1.8 0C7.34 12.47 10 6.708 10 4.78 10 2.14 7.761 0 5 0Z" fill="#fff"/></g><path d="M18.576 9.084a3.685 3.685 0 0 1-1.488-.288 2.542 2.542 0 0 1-1.02-.816 2.119 2.119 0 0 1-.384-1.212h1.164c.04.392.2.724.48.996.288.264.704.396 1.248.396.52 0 .928-.128 1.224-.384.304-.264.456-.6.456-1.008 0-.32-.088-.58-.264-.78a1.687 1.687 0 0 0-.66-.456c-.264-.104-.62-.216-1.068-.336a9.703 9.703 0 0 1-1.332-.432 2.212 2.212 0 0 1-.852-.672c-.232-.312-.348-.728-.348-1.248 0-.456.116-.86.348-1.212.232-.352.556-.624.972-.816.424-.192.908-.288 1.452-.288.784 0 1.424.196 1.92.588.504.392.788.912.852 1.56h-1.2c-.04-.32-.208-.6-.504-.84-.296-.248-.688-.372-1.176-.372-.456 0-.828.12-1.116.36-.288.232-.432.56-.432.984 0 .304.084.552.252.744.176.192.388.34.636.444.256.096.612.208 1.068.336.552.152.996.304 1.332.456.336.144.624.372.864.684.24.304.36.72.36 1.248 0 .408-.108.792-.324 1.152-.216.36-.536.652-.96.876-.424.224-.924.336-1.5.336Zm13.151-6.66L29.675 9h-1.128l-1.584-5.22L25.379 9h-1.128l-2.064-6.576h1.116l1.512 5.52 1.632-5.52h1.116l1.596 5.532 1.488-5.532h1.08Zm7.084 3.036c0 .208-.012.428-.036.66h-5.256c.04.648.26 1.156.66 1.524.408.36.9.54 1.476.54.472 0 .864-.108 1.176-.324.32-.224.544-.52.672-.888h1.176a2.856 2.856 0 0 1-1.056 1.548c-.528.392-1.184.588-1.968.588-.624 0-1.184-.14-1.68-.42A2.995 2.995 0 0 1 32.823 7.5c-.28-.52-.42-1.12-.42-1.8 0-.68.136-1.276.408-1.788a2.836 2.836 0 0 1 1.14-1.176c.496-.28 1.064-.42 1.704-.42.624 0 1.176.136 1.656.408.48.272.848.648 1.104 1.128.264.472.396 1.008.396 1.608Zm-1.128-.228c0-.416-.092-.772-.276-1.068a1.737 1.737 0 0 0-.756-.684c-.312-.16-.66-.24-1.044-.24-.552 0-1.024.176-1.416.528-.384.352-.604.84-.66 1.464h4.152Zm2.161.456c0-.672.136-1.26.408-1.764a2.964 2.964 0 0 1 1.116-1.188c.48-.28 1.016-.42 1.608-.42.512 0 .988.12 1.428.36.44.232.776.54 1.008.924V.12h1.104V9h-1.104V7.764a2.598 2.598 0 0 1-.96.972c-.424.248-.92.372-1.488.372a3.043 3.043 0 0 1-1.596-.432 3.03 3.03 0 0 1-1.116-1.212c-.272-.52-.408-1.112-.408-1.776Zm5.568.012c0-.496-.1-.928-.3-1.296a2.065 2.065 0 0 0-.816-.84 2.14 2.14 0 0 0-1.116-.3c-.408 0-.78.096-1.116.288a2.09 2.09 0 0 0-.804.84c-.2.368-.3.8-.3 1.296 0 .504.1.944.3 1.32.2.368.468.652.804.852a2.21 2.21 0 0 0 1.116.288c.408 0 .78-.096 1.116-.288.344-.2.616-.484.816-.852.2-.376.3-.812.3-1.308Zm8.95-.24c0 .208-.013.428-.037.66H49.07c.04.648.26 1.156.66 1.524.409.36.9.54 1.477.54.471 0 .863-.108 1.175-.324.32-.224.544-.52.672-.888h1.177a2.856 2.856 0 0 1-1.056 1.548c-.529.392-1.184.588-1.968.588-.625 0-1.184-.14-1.68-.42A2.995 2.995 0 0 1 48.373 7.5c-.28-.52-.42-1.12-.42-1.8 0-.68.136-1.276.408-1.788a2.836 2.836 0 0 1 1.14-1.176c.497-.28 1.065-.42 1.705-.42.623 0 1.175.136 1.655.408.48.272.849.648 1.105 1.128.264.472.395 1.008.395 1.608Zm-1.129-.228c0-.416-.091-.772-.275-1.068a1.737 1.737 0 0 0-.756-.684c-.313-.16-.66-.24-1.044-.24-.553 0-1.025.176-1.416.528-.384.352-.604.84-.66 1.464h4.151Zm5.774-2.928c.8 0 1.448.244 1.944.732.496.48.744 1.176.744 2.088V9h-1.08V5.28c0-.656-.164-1.156-.492-1.5-.328-.352-.776-.528-1.344-.528-.576 0-1.036.18-1.38.54-.336.36-.504.884-.504 1.572V9h-1.092V2.424h1.092v.936c.216-.336.508-.596.876-.78a2.774 2.774 0 0 1 1.236-.276Z" fill="#fff"/><defs><clipPath id="clip0_2_265"><path fill="#fff" d="M0 0h10v16H0z"/></clipPath></defs></svg>